{"asset":{"version":"2.0","generator":"babylon.js glTF exporter for 3dsmax 2021 v20210514.3"},"scene":0,"scenes":[{"nodes":[0]}],"nodes":[{"mesh":0,"name":"Plane001"}],"meshes":[{"primitives":[{"attributes":{"POSITION":1,"NORMAL":2,"TEXCOORD_0":3},"indices":0,"material":0}],"name":"Plane001"}],"accessors":[{"bufferView":0,"componentType":5123,"count":23310,"type":"SCALAR","name":"accessorIndices"},{"bufferView":1,"componentType":5126,"count":23310,"max":[0.04926758,1.08856225,0.0492656268],"min":[-0.04926758,0.0,-0.0492695346],"type":"VEC3","name":"accessorPositions"},{"bufferView":1,"byteOffset":279720,"componentType":5126,"count":23310,"type":"VEC3","name":"accessorNormals"},{"bufferView":2,"componentType":5126,"count":23310,"type":"VEC2","name":"accessorUVs"}],"bufferViews":[{"buffer":0,"byteLength":46620,"name":"bufferViewScalar"},{"buffer":0,"byteOffset":46620,"byteLength":559440,"byteStride":12,"name":"bufferViewFloatVec3"},{"buffer":0,"byteOffset":606060,"byteLength":186480,"byteStride":8,"name":"bufferViewFloatVec2"}],"buffers":[{"uri":"大柱.bin","byteLength":792540}],"materials":[{"pbrMetallicRoughness":{"baseColorTexture":{"index":0},"metallicFactor":0.0,"roughnessFactor":0.5},"doubleSided":true,"name":"Material #25","extras":{"babylonSeparateCullingPass":false}}],"textures":[{"sampler":0,"source":0,"name":"微信图片_20211231184151.jpg"}],"images":[{"uri":"./微信图片_20211231184151.jpg"}],"samplers":[{"magFilter":9729,"minFilter":9987}]}