{"asset":{"version":"2.0","generator":"babylon.js glTF exporter for 3dsmax 2021 v20210514.3"},"scene":0,"scenes":[{"nodes":[0]}],"nodes":[{"mesh":0,"name":"Plane001"}],"meshes":[{"primitives":[{"attributes":{"POSITION":1,"NORMAL":2,"TEXCOORD_0":3},"indices":0,"material":0}],"name":"Plane001"}],"accessors":[{"bufferView":0,"componentType":5123,"count":11664,"type":"SCALAR","name":"accessorIndices"},{"bufferView":1,"componentType":5126,"count":11664,"max":[0.000791,0.0334664024,0.000792900042],"min":[-0.000791,0.0,-0.000792900042],"type":"VEC3","name":"accessorPositions"},{"bufferView":1,"byteOffset":139968,"componentType":5126,"count":11664,"type":"VEC3","name":"accessorNormals"},{"bufferView":2,"componentType":5126,"count":11664,"type":"VEC2","name":"accessorUVs"}],"bufferViews":[{"buffer":0,"byteLength":23328,"name":"bufferViewScalar"},{"buffer":0,"byteOffset":23328,"byteLength":279936,"byteStride":12,"name":"bufferViewFloatVec3"},{"buffer":0,"byteOffset":303264,"byteLength":93312,"byteStride":8,"name":"bufferViewFloatVec2"}],"buffers":[{"uri":"小柱.bin","byteLength":396576}],"materials":[{"pbrMetallicRoughness":{"baseColorTexture":{"index":0},"metallicFactor":0.0,"roughnessFactor":0.5},"doubleSided":true,"name":"木纹","extras":{"babylonSeparateCullingPass":false}}],"textures":[{"sampler":0,"source":0,"name":"微信图片_20211231184151.jpg"}],"images":[{"uri":"./微信图片_20211231184151.jpg"}],"samplers":[{"magFilter":9729,"minFilter":9987}]}